<mxfile host="app.diagrams.net" modified="2021-05-21T10:02:34.424Z" agent="5.0 (Windows NT 10.0; Win64; x64) AppleWebKit/537.36 (KHTML, like Gecko) Chrome/90.0.4430.212 Safari/537.36" etag="A2CTyx0EnwBhW8pPI9pK" version="14.7.0" type="github">
  <diagram id="1x4AcqCp1_m9hiI0faPE" name="Page-1">
    <mxGraphModel dx="782" dy="483" grid="1" gridSize="10" guides="1" tooltips="1" connect="1" arrows="1" fold="1" page="1" pageScale="1" pageWidth="827" pageHeight="1169" math="0" shadow="0">
      <root>
        <mxCell id="0" />
        <mxCell id="1" parent="0" />
        <mxCell id="ijpK6qmGK1IcFcSP-jF1-1" value="" style="ellipse;whiteSpace=wrap;html=1;aspect=fixed;fillColor=#647687;strokeColor=#314354;fontColor=#ffffff;" parent="1" vertex="1">
          <mxGeometry x="120" y="110" width="80" height="80" as="geometry" />
        </mxCell>
        <mxCell id="ijpK6qmGK1IcFcSP-jF1-2" value="" style="ellipse;whiteSpace=wrap;html=1;aspect=fixed;fillColor=#647687;strokeColor=#314354;fontColor=#ffffff;" parent="1" vertex="1">
          <mxGeometry x="450" y="50" width="80" height="80" as="geometry" />
        </mxCell>
        <mxCell id="ijpK6qmGK1IcFcSP-jF1-3" value="" style="ellipse;whiteSpace=wrap;html=1;aspect=fixed;fillColor=#f5f5f5;strokeColor=#666666;fontColor=#333333;" parent="1" vertex="1">
          <mxGeometry x="110" y="330" width="80" height="80" as="geometry" />
        </mxCell>
        <mxCell id="ijpK6qmGK1IcFcSP-jF1-4" value="" style="ellipse;whiteSpace=wrap;html=1;aspect=fixed;" parent="1" vertex="1">
          <mxGeometry x="680" y="40" width="80" height="80" as="geometry" />
        </mxCell>
        <mxCell id="ijpK6qmGK1IcFcSP-jF1-5" value="" style="ellipse;whiteSpace=wrap;html=1;aspect=fixed;" parent="1" vertex="1">
          <mxGeometry x="250" y="160" width="80" height="80" as="geometry" />
        </mxCell>
        <mxCell id="ijpK6qmGK1IcFcSP-jF1-6" value="" style="ellipse;whiteSpace=wrap;html=1;aspect=fixed;" parent="1" vertex="1">
          <mxGeometry x="670" y="370" width="80" height="80" as="geometry" />
        </mxCell>
        <mxCell id="ijpK6qmGK1IcFcSP-jF1-7" value="" style="ellipse;whiteSpace=wrap;html=1;aspect=fixed;" parent="1" vertex="1">
          <mxGeometry x="430" y="240" width="80" height="80" as="geometry" />
        </mxCell>
        <mxCell id="ijpK6qmGK1IcFcSP-jF1-8" value="" style="endArrow=none;html=1;exitX=1;exitY=0.5;exitDx=0;exitDy=0;entryX=0;entryY=0.5;entryDx=0;entryDy=0;" parent="1" source="ijpK6qmGK1IcFcSP-jF1-3" target="ijpK6qmGK1IcFcSP-jF1-7" edge="1">
          <mxGeometry width="50" height="50" relative="1" as="geometry">
            <mxPoint x="310" y="280" as="sourcePoint" />
            <mxPoint x="360" y="230" as="targetPoint" />
          </mxGeometry>
        </mxCell>
        <mxCell id="ijpK6qmGK1IcFcSP-jF1-9" value="" style="endArrow=none;html=1;entryX=1;entryY=0;entryDx=0;entryDy=0;exitX=0;exitY=1;exitDx=0;exitDy=0;" parent="1" source="ijpK6qmGK1IcFcSP-jF1-4" target="ijpK6qmGK1IcFcSP-jF1-7" edge="1">
          <mxGeometry width="50" height="50" relative="1" as="geometry">
            <mxPoint x="600" y="120" as="sourcePoint" />
            <mxPoint x="360" y="230" as="targetPoint" />
          </mxGeometry>
        </mxCell>
        <mxCell id="ijpK6qmGK1IcFcSP-jF1-10" value="" style="endArrow=none;html=1;exitX=0;exitY=0;exitDx=0;exitDy=0;entryX=1;entryY=0.5;entryDx=0;entryDy=0;" parent="1" source="ijpK6qmGK1IcFcSP-jF1-6" target="ijpK6qmGK1IcFcSP-jF1-7" edge="1">
          <mxGeometry width="50" height="50" relative="1" as="geometry">
            <mxPoint x="310" y="280" as="sourcePoint" />
            <mxPoint x="360" y="230" as="targetPoint" />
          </mxGeometry>
        </mxCell>
        <mxCell id="ijpK6qmGK1IcFcSP-jF1-11" value="" style="ellipse;whiteSpace=wrap;html=1;aspect=fixed;" parent="1" vertex="1">
          <mxGeometry x="290" y="320" width="50" height="50" as="geometry" />
        </mxCell>
        <mxCell id="ijpK6qmGK1IcFcSP-jF1-14" value="" style="ellipse;whiteSpace=wrap;html=1;aspect=fixed;" parent="1" vertex="1">
          <mxGeometry x="570" y="320" width="50" height="50" as="geometry" />
        </mxCell>
        <mxCell id="ijpK6qmGK1IcFcSP-jF1-15" value="" style="ellipse;whiteSpace=wrap;html=1;aspect=fixed;" parent="1" vertex="1">
          <mxGeometry x="580" y="150" width="50" height="50" as="geometry" />
        </mxCell>
        <mxCell id="ijpK6qmGK1IcFcSP-jF1-16" value="Мажоритарный класс" style="text;html=1;strokeColor=none;fillColor=none;align=center;verticalAlign=middle;whiteSpace=wrap;rounded=0;fontSize=25;fontFamily=Times New Roman;" parent="1" vertex="1">
          <mxGeometry x="140" y="40" width="260" height="20" as="geometry" />
        </mxCell>
        <mxCell id="ijpK6qmGK1IcFcSP-jF1-17" value="" style="endArrow=classic;html=1;fontFamily=Times New Roman;fontSize=25;" parent="1" edge="1">
          <mxGeometry width="50" height="50" relative="1" as="geometry">
            <mxPoint x="380" y="70" as="sourcePoint" />
            <mxPoint x="440" y="90" as="targetPoint" />
          </mxGeometry>
        </mxCell>
        <mxCell id="ijpK6qmGK1IcFcSP-jF1-19" value="" style="endArrow=classic;html=1;fontFamily=Times New Roman;fontSize=25;" parent="1" edge="1">
          <mxGeometry width="50" height="50" relative="1" as="geometry">
            <mxPoint x="190" y="70" as="sourcePoint" />
            <mxPoint x="180" y="100" as="targetPoint" />
          </mxGeometry>
        </mxCell>
        <mxCell id="ijpK6qmGK1IcFcSP-jF1-20" value="Новые наблюдения миноритарного класса" style="text;html=1;strokeColor=none;fillColor=none;align=center;verticalAlign=middle;whiteSpace=wrap;rounded=0;fontFamily=Times New Roman;fontSize=25;" parent="1" vertex="1">
          <mxGeometry x="370" y="410" width="180" height="110" as="geometry" />
        </mxCell>
        <mxCell id="ijpK6qmGK1IcFcSP-jF1-22" value="" style="endArrow=classic;html=1;fontFamily=Times New Roman;fontSize=25;exitX=0.25;exitY=0;exitDx=0;exitDy=0;" parent="1" source="ijpK6qmGK1IcFcSP-jF1-20" edge="1">
          <mxGeometry width="50" height="50" relative="1" as="geometry">
            <mxPoint x="330" y="250" as="sourcePoint" />
            <mxPoint x="340" y="380" as="targetPoint" />
          </mxGeometry>
        </mxCell>
        <mxCell id="ijpK6qmGK1IcFcSP-jF1-23" value="" style="endArrow=classic;html=1;fontFamily=Times New Roman;fontSize=25;" parent="1" edge="1">
          <mxGeometry width="50" height="50" relative="1" as="geometry">
            <mxPoint x="520" y="430" as="sourcePoint" />
            <mxPoint x="570" y="380" as="targetPoint" />
          </mxGeometry>
        </mxCell>
        <mxCell id="ijpK6qmGK1IcFcSP-jF1-25" value="" style="curved=1;endArrow=classic;html=1;fontFamily=Times New Roman;fontSize=25;" parent="1" source="ijpK6qmGK1IcFcSP-jF1-20" edge="1">
          <mxGeometry width="50" height="50" relative="1" as="geometry">
            <mxPoint x="330" y="1140" as="sourcePoint" />
            <mxPoint x="640" y="210" as="targetPoint" />
            <Array as="points">
              <mxPoint x="770" y="540" />
              <mxPoint x="800" y="400" />
            </Array>
          </mxGeometry>
        </mxCell>
        <mxCell id="ijpK6qmGK1IcFcSP-jF1-26" value="Пример наблюдения миноритарного класса" style="text;html=1;strokeColor=none;fillColor=none;align=center;verticalAlign=middle;whiteSpace=wrap;rounded=0;fontFamily=Times New Roman;fontSize=25;" parent="1" vertex="1">
          <mxGeometry y="470" width="300" height="80" as="geometry" />
        </mxCell>
        <mxCell id="ijpK6qmGK1IcFcSP-jF1-30" value="" style="endArrow=classic;html=1;fontFamily=Times New Roman;fontSize=25;exitX=0.5;exitY=0;exitDx=0;exitDy=0;" parent="1" source="ijpK6qmGK1IcFcSP-jF1-26" edge="1">
          <mxGeometry width="50" height="50" relative="1" as="geometry">
            <mxPoint x="330" y="260" as="sourcePoint" />
            <mxPoint x="150" y="430" as="targetPoint" />
          </mxGeometry>
        </mxCell>
      </root>
    </mxGraphModel>
  </diagram>
</mxfile>
